<svg width="32" height="32" viewBox="0 0 32 32" fill="none" xmlns="http://www.w3.org/2000/svg">
<path d="M24.445 23.498C20.89 23.5464 17.4594 22.1907 14.8981 19.7251C12.3368 17.2595 10.8516 13.8831 10.765 10.3292C10.7657 8.58533 11.1195 6.8597 11.8053 5.25633C12.491 3.65297 13.4944 2.20509 14.755 1C11.018 1.36894 7.54845 3.10312 5.0105 5.87052C2.47256 8.63793 1.0446 12.2441 1 15.9986C1.09057 20.0577 2.78642 23.9155 5.71605 26.7268C8.64568 29.5381 12.5702 31.0737 16.63 30.9973C19.6532 31.0237 22.6194 30.1736 25.1696 28.5499C27.7199 26.9262 29.745 24.5984 31 21.8481C28.9833 22.9271 26.7322 23.4937 24.445 23.498Z" stroke="black" stroke-width="2" stroke-linecap="round" stroke-linejoin="round"/>
</svg>
