<svg width="30" height="30" viewBox="0 0 30 30" fill="none" xmlns="http://www.w3.org/2000/svg">
<path d="M15 7.74194C10.9971 7.74194 7.74194 10.9971 7.74194 15C7.74194 19.0029 10.9971 22.2581 15 22.2581C19.0029 22.2581 22.2581 19.0029 22.2581 15C22.2581 10.9971 19.0029 7.74194 15 7.74194ZM15 20.1466C12.1848 20.1466 9.85337 17.8592 9.85337 15C9.85337 12.1408 12.1408 9.85337 15 9.85337C17.8592 9.85337 20.1466 12.1408 20.1466 15C20.1466 17.8592 17.8152 20.1466 15 20.1466ZM15 5.45455C15.5718 5.45455 16.0557 4.97067 16.0557 4.39883V1.05572C16.0557 0.483871 15.5718 0 15 0C14.4282 0 13.9443 0.483871 13.9443 1.05572V4.39883C13.9443 4.97067 14.4282 5.45455 15 5.45455ZM15 24.5455C14.4282 24.5455 13.9443 25.0293 13.9443 25.6012V28.9443C13.9443 29.5161 14.4282 30 15 30C15.5718 30 16.0557 29.5161 16.0557 28.9443V25.6012C16.0557 25.0293 15.5718 24.5455 15 24.5455ZM22.478 8.57771C22.7419 8.57771 23.0059 8.48974 23.2258 8.2698L25.6012 5.89443C25.9971 5.49853 25.9971 4.79472 25.6012 4.39883C25.2053 4.00293 24.5015 4.00293 24.1056 4.39883L21.7302 6.77419C21.3343 7.17009 21.3343 7.8739 21.7302 8.2698C21.9501 8.44575 22.2141 8.57771 22.478 8.57771ZM6.77419 21.7302L4.39883 24.1056C4.00293 24.5015 4.00293 25.2053 4.39883 25.6012C4.61877 25.8211 4.8827 25.9091 5.14663 25.9091C5.41056 25.9091 5.67449 25.8211 5.89443 25.6012L8.2698 23.2258C8.66569 22.8299 8.66569 22.1261 8.2698 21.7302C7.8739 21.3343 7.17009 21.3343 6.77419 21.7302ZM28.9443 13.9443H25.6012C25.0293 13.9443 24.5455 14.4282 24.5455 15C24.5455 15.5718 25.0293 16.0557 25.6012 16.0557H28.9443C29.5161 16.0557 30 15.5718 30 15C30 14.4282 29.5161 13.9443 28.9443 13.9443ZM5.45455 15C5.45455 14.4282 4.97067 13.9443 4.39883 13.9443H1.05572C0.483871 13.9443 0 14.4282 0 15C0 15.5718 0.483871 16.0557 1.05572 16.0557H4.39883C4.97067 16.0557 5.45455 15.5718 5.45455 15ZM23.2258 21.7302C22.8299 21.3343 22.1261 21.3343 21.7302 21.7302C21.3343 22.1261 21.3343 22.8299 21.7302 23.2258L24.1056 25.6012C24.3255 25.8211 24.5894 25.9091 24.8534 25.9091C25.1173 25.9091 25.3812 25.8211 25.6012 25.6012C25.9971 25.2053 25.9971 24.5015 25.6012 24.1056L23.2258 21.7302ZM6.77419 8.2698C6.99414 8.48974 7.25807 8.57771 7.52199 8.57771C7.78592 8.57771 8.04985 8.48974 8.2698 8.2698C8.66569 7.8739 8.66569 7.17009 8.2698 6.77419L5.89443 4.39883C5.49853 4.00293 4.79472 4.00293 4.39883 4.39883C4.00293 4.79472 4.00293 5.49853 4.39883 5.89443L6.77419 8.2698Z" fill="white"/>
</svg>
